/* XPM */
static char *_0f2947a55ee45d6e0223dd992bc3746NmZnWcIOJD41l9p6[] = {
/* columns rows colors chars-per-pixel */
"50 50 7 1 ",
"  c #010000",
". c #000100",
"X c #000001",
"o c #FD5232",
"O c #FC5233",
"+ c #FD5233",
"@ c #FD5333",
/* pixels */
"ooooooooooooooooooooooooooooooooooooooooooooo+oooo",
"oooooooo++ooooooooooooooooooooooo+oooooooooooooooo",
"oooooooo++++ooo+ooooooo+oooooooo+o++oooooooooooooo",
"oooooo......................................ooooo+",
"oooooo.....X................................+ooooo",
"oooooo......................................oooooo",
"oooooo......................................oooooo",
"oooooo......................................oooooo",
"oo+ooo......................................oooooo",
"oooooo......................................oooooo",
"ooooo+......................................oooooo",
"oooooo......................................oooooo",
"oooooo..........+ooooooooooo++oooooooooo+ooooo+ooo",
"o+oooo..........oooooooooooo++ooooo+oooooooooooooo",
"oo+ooo..........oooooooooooooooooooooooooooooooooo",
"oooooo..........oooooooooooooooooooo+ooooooooooooo",
"oooooo..........ooooooooooooooo+oooooooooooooooooo",
"oooooo..........oooooooooooooooooooooooooooooooooo",
"oooooo..........oooooooooooooooooooooooooooooooo+o",
"oooooo..........ooooooooo+oooooooooooooooooooooooo",
"oooooo..........oo+oooooo+++o+ooooooo+++oooooooooo",
"oooooo......................................o++oOo",
"oooo+o......................................oooooo",
"oooo++......................................oooooo",
"oooooo......................................oooOoo",
"ooooo+......................................oooooo",
"oooooo......................................oOoooo",
"oooooo......................................oooooo",
"ooo+oo......................................ooo+oo",
"oooooo......................................oooooo",
"oooooo..........oo+ooooooooo+ooo+ooooooooo+ooooooo",
"oooooo..........oooooooooooooooooooooooooooooooooo",
"oooooo..........oooooooooooooooo+oooooooooooo+oooo",
"oooooo..........oo+oooooooooooooooooooo++ooooooooo",
"oooooo..........ooooo+ooooooooo+oooooooooooooooooo",
"oooooo..........ooo+ooooooooooooooooooooooooooo+oo",
"ooooo+..........oooooooooooooooooooooooooooooo+ooo",
"oooooo..........oooooooooooooooo+oooooooooooooOooo",
"oooooo..........+ooooo+ooooooooooooooooooooooooooo",
"oooooo......................................Oooooo",
"oooooo......................................oooooo",
"oooooo......................................oooooo",
"oooooo......................................oooo+o",
"oooooo......................................oooooo",
"oooooo......................................+ooooo",
"oooooo......................................oooo+o",
"oooooo......................................oooooo",
"ooooooooooooo+++ooooooooooooooo+ooo+oooooooooooooo",
"oooo+ooooooooooooooooooooooooooooooooooooooooooooo",
"o+ooooooooooooooooooooooooooooooooo+oooooooooooooo"
};
