/* XPM */
static char *_1914287c2cc4977b127ce8923e861149lAf40hlL2gLugXo[] = {
/* columns rows colors chars-per-pixel */
"50 50 4 1 ",
"  c #000101",
". c #48E4E4",
"X c #49E4E4",
"o c #49E5E5",
/* pixels */
"XXXXXXXXXXXXXXXXXXXXXXXXXXXXXXXXXXXXXXXXXXXXXXXXXX",
"XXXXXXXXXXXXXXXXXXXXXXXXXXXXXXXXXXXXXXXXXXXXXXXXXX",
"XXXXXXXXXXXXXXXXXXXXXXXXXXXXXXXXXXXXXXXXXXXXXXXXXX",
"XXXXXXXXXXXXXXXXXXXXXXXXXXXXXXXXXXXXXXXXXXXXXXXXXX",
"XXXXXXXXXXXXXXXXXXXXXXXXXXXXXXXXXXXXXXXXXXXXXXXXXX",
"XXXXXXX      XXXXXXXXXXXXXXXXXXXXXXXX      XXXXXXX",
"XXXXXXX       XXXXXXXXXXXXXXXXXXXXXXX      XXXXXXX",
"XXXXXXX        XXXXXXXXXXXXXXXXXXXXXX      XXXXXXX",
"XXXXXXX         XXXXXXXXXXXXXXXXXXXXX      XXXXXXX",
"XXXXXXX          XXXXXXXXXXXXXXXXXXXX      XXXXXXX",
"XXXXXXX           XXXXXXXXXXXXXoXXXXX      XXXXXXX",
"XXXXXXX            XXXXXXXXXXXXoXXXXX      XXXXXXX",
"XXXXXXX             XXXXXXXXXXXXXXXXX      XXXXXXX",
"XXXXXXX              XXXXXXXXXooXXXXX      XXXXXXX",
"XXXXXXX              XXXXX.X..ooXXXXX      XXXXXXX",
"XXXXXXX               XXXX.....oXXXXX      XXXXXXX",
"XXXXXXX                XXXXXXXXXXXXXX      XXXXXXX",
"XXXXXXX       X         XXXXXXXXXXXXX      XXXXXXX",
"XXXXXXX       X          XXXXXXXXXXXX      XXXXXXX",
"XXXXXXX       XX          XXXXXXXXXXX      XXXXXXX",
"XXXXXXX       XXX          XXXXXXXXXX      XXXXXXX",
"XXXXXXX       XXXX          XXXXXXXXX      XXXXXXX",
"XXXXXXX       XXXXX         XXXXXXXXX      XXXXXXX",
"XXXXXXX       XXXXX          XXXXXXXX      XXXXXXX",
"XXXXXXX       XXXXXX          XXXXXXX      XXXXXXX",
"XXXXXXX       XXXXXXX          XXXXXX      XXXXXXX",
"XXXXXXX       XXXXXXXX          XXXXX      XXXXXXX",
"XXXXXXX       XXXXXXXXX          XXXX      oXXXXXX",
"XXXXXXX       XXXXXXXXXX          XXX      XXXXXXX",
"XXXXXXX       XXXXXXXXXXX          XX      XXXXXXX",
"XXXXXXX       XXXXXXXXXXXX         XX      XXXXXXX",
"XXXXXXX       XXXXXXXXXXXXX         X      XXXXXXX",
"XXXXXXX       XXXXXXXXXXXXXX               XXXXXXX",
"XXXXXXX       XXXXXXXXXXXXXXX              XXXXXXX",
"XXXXXXX       XXXXXXXXXXXXXXX              XXXXXXX",
"XXXXXXX       XXXXXXXXXXXXXXXX             XXXXXXX",
"XXXXXXX       XXXXXXXXXXXXXXXXX            XXXXXXX",
"XXXXXXX       XXXXXXXXXXXXXXXXXX           XXXXXXX",
"XXXXXXX       XXXXXXXXXXXXXXXXXXX          XXXXXXX",
"XXXXXXX       XXXXXXXXXXXXXXXXXXXX         XXXXXXX",
"XXXXXXX       XXXXXXXXXXXXXXXXXXXX         XXXXXXX",
"XXXXXXX       XXXXXXXXXXXXXXXXXXXXX        XXXXXXX",
"XXXXXXX       XX....XXXXXXXXXXXXXXXX       XXXXXXX",
"XXXXXXXXXXXXXXXX....XXXXXXXXXXXXXXXXX      XXXXXXX",
"XXXXXXXXXXXXXXXXoooooXXXXooXXXXXXXXXXXXXXXXXXXXXXX",
"XXXXXXXXXXXXXXXXXXooXXXXXXXXXXXXXXXXXXXXXXXXXXXXXX",
"XXXXXXXXXXXXXXXXXXXXXXXXXXXXXXXXXXXXXXXXXXXXXXXXXX",
"XXXXXXXXXXXXXXXXXXXXXXXXXXXXXXXXXXXXXXXXXXXXXXXXXX",
"XXXXXXXXXXXXXXXXXXXXXXXXXXXXXXXXXXXXXXXXXXXXXXXXXX",
"XXXXXXXXXXXXXXXXXXXXXXXXXXXXXXXXXXXXXXXXXXXXXXXXXX"
};
