/* XPM */
static char *ae1a6635818b4b3a972346ba6d0a4e5ev0xJOrBCYCN3WXaL[] = {
/* columns rows colors chars-per-pixel */
"50 50 3 1 ",
"  c #000001",
". c #FEF214",
"X c #FFF314",
/* pixels */
"XXXXXXXXXXXXXXXXXXXXXXXXXXXXXXXXXXXXXXXXXXXXXXXXXX",
"XXXXXXXXXXXXXXXXXXX           XXXXXXXXXXXXXXXXXXXX",
"XXXXXXXXXXXXXXXXX               XXXXXXXXXXXXXXXXXX",
"XXXXXXXXXXXXXXX                    XXXXXXXXXXXXXXX",
"XXXXXXXXXXXXXX                       XXXXXXXXXXXXX",
"XXXXXXXXXXXXX                         XXXXXXXXXXXX",
"XXXXXXXXXXXXX                         XXXXXXXXXXXX",
"XXXXXXXXXXXX         XXXXXXXXX         XXXXXXXXXXX",
"XXXXXXXXXXXX       XXXXXXXXXXXX        XXXXXXXXXXX",
"XXXXXXXXXXX       XXXXXXXXXXXXXXX      XXXXXXXXXXX",
"XXXXXXXXXX        XXXXXXXXXXXXXXXX      XXXXXXXXXX",
"XXXXXXXXXX       XXXXXXXXXXXXXXXXX      XXXXXXXXXX",
"XXXXXXXXXX       XXXXXXXXXXXXXXXXX      XXXXXXXXXX",
"XXXXXXXXXX       XXXXXXXXXXXXXXXXXX     XXXXXXXXXX",
"XXXXXXXXXX       XXXXXXXXXXXXXXXXXX     XXXXXXXXXX",
"XXXXXXXXXX       XXXXXXXXXXXXXXXXXXXX  XXXXXXXXXXX",
"XXXXXXXXXX       XXXXXXXXXXXXXXXXXXXXXXXXXXXXXXXXX",
"XXXXXXXXXXX      XXXXXXXXXXXXXXXXXXXXXXXXXXXXXXXXX",
"XXXXXXXXXXX       XXXXXXXXXXXXXXXXXXXXXXXXXXXXXXXX",
"XXXXXXXXXXXX      XXXXXXXXXXXXXXXXXXXXXXXXXXXXXXXX",
"XXXXXXXXXXXX       XXXXXXXXXXXXXXXXXXXXXXXXXXXXXXX",
"XXXXXXXXXXXXX        XXXXXXXXXXXXXXXXXXXXXXXXXXXXX",
"XXXXXXXXXXXXX           XXXXXXXXXXXXXXXXXXXXXXXXXX",
"XXXXXXXXXXXXXX                 XXXXXXXXXXXXXXXXXXX",
"XXXXXXXXXXXXXXX                   XXXXXXXXXXXXXXXX",
"XXXXXXXXXXXXXXXX                   XXXXXXXXXXXXXXX",
"XXXXXXXXXXXXXXXXXX                  XXXXXXXXXXXXXX",
"XXXXXXXXXXXXXXXXXXX                  XXXXXXXXXXXXX",
"XXXXXXXXXXXXXXXXXXXXXX                XXXXXXXXXXXX",
"XXXXXXXXXXXXXXXXXXXXXXXXXXXXXXX        XXXXXXXXXXX",
"XXXXXXXXXXXXXXXXXXXXXXXXXXXXXXXX       XXXXXXXXXXX",
"XXXXXXXXXXXXXXXXXXXXXXXXXXXXXXXXX      XXXXXXXXXXX",
"XXXXXXXXXXXXXXXXXXXXXXXXXXXXXXXXX       XXXXXXXXXX",
"XXXXXXXXXXXXXXXXXXXXXXXXXXXXXXXXX       XXXXXXXXXX",
"XXXXXXXXXXXXXXXXXXXXXXXXXXXXXXXXX       XXXXXXXXXX",
"XXXXXXXXXXXX   XXXXXXXXXXXXXXXXXXX      XXXXXXXXXX",
"XXXXXXXXXXX     XXXXXXXXXXXXXXXXXX      XXXXXXXXXX",
"XXXXXXXXXX      XXXXXXXXXXXXXXXXX       XXXXXXXXXX",
"XXXXXXXXXX       XXXXXXXXXXXXXXXX       XXXXXXXXXX",
"XXXXXXXXXX        XXXXXXXXXXXXXX        XXXXXXXXXX",
"XXXXXXXXXXX         XXXXXXXXXXXX       XXXXXXXXXXX",
"XXXXXXXXXXXX          XXXXXXXX        XXXXXXXXXXXX",
"XXXXXXXXXXXX                          XXXXXXXXXXXX",
"XXXXXXXXXXXXX                        XXXXXXXXXXXXX",
"XXXXXXXXXXXXX                       XXXXXXXXXXXXXX",
"XXXXXXXXXXXXXXX                    XXXXXXXXXXXXXXX",
"XXXXXXXXXXXXXXXXX                XXXXXXXXXXXXXXXXX",
"XXXXXXXXXXXXXXXXXXXX            XXXXXXXXXXXXXXXXXX",
"XXXXXXXXXXXXXXXXXXXXXXXXXXXXXXXXXXXXXXXXXXXXXXXXXX",
"XXXXXXXXXXXXXXXXXXXXXXXXXXXXXXXXXXXXXXXXXXXXXXXXXX"
};
