/* XPM */
static char *b3b6276ca1c641c4ee378e9abaeb21372reJ4vwem0UNIcqZ[] = {
/* columns rows colors chars-per-pixel */
"50 50 8 1 ",
"  c black",
". c #000100",
"X c #000001",
"o c #5CDD18",
"O c #5DDD18",
"+ c #5CDC19",
"@ c #5DDC19",
"# c #5DDD19",
/* pixels */
"OOOOOOOOOOOOOOOOOOOOOOOOOOOOOOOOOOOOOO#OOO#O+OOOOO",
"OOOOOOOOOOO+o+OOOOOOOOOOOOOOOOOOOOOOOOOOOOOOO#OOOO",
"OOOOOOOOOOOOoOOOOOOOOOOOOOOOOOOOOO+#OOOOOOOOOOOOOO",
"OOOOOOOOOOOOOOOOOOOOOOOOOOOOOOOOOOOOOOOOOOOOOOOOOO",
"OOOOOOOOOOOOOOOOOOOOOOOOOOOOOOOOOOOOOOOOOOOOOOOOOO",
"OOOOOOOOOOOOOOOOOOO+OOOOOOOOOOOO#O#OOOO+OOOOOOOOOO",
"O       OOOOOOOOOOOOOOOOOOOOOOOOOOOOOOOOOOOOOOOOOO",
"O       OOOOO+OOOOOOOO      OOOO#OOOOOOOOO       O",
"O        OOOOOOOOOOOOO        OOOOOOOOOOOO       O",
"OO       OOOOOOOOOOOO         OOOOOOOOOOOO       O",
"OO       OOOOOOOOOOOO         OOOOOOOOOO#    X   O",
"OO       OOOOOOOOOOOO          OOOOOOOOOO       OO",
"OO        OOOOOOOOOO           OOOOOOOOOO       OO",
"OOO       OOOOOOOOOO           OOOOOOOOOO       OO",
"OOO       OOOOOOOOOO           OOOOOOOOOO       OO",
"OOO       OOOOOOOOO             OOOOOOOOO    X  OO",
"OO#        #OOOOOOO            X#OOOOOOO X     #OO",
"OOOO       OOOOOO#O       XX    OOOOOOOO       O#O",
"OOOO       #OOOOOO              OOOOOOOO       #OO",
"OOO#       OOOOOOO               OOOOOOO       OOO",
"OOO#        OOOOOO  X   X        OOOOOOO       OOO",
"OOOO#       #OOOO                OOOOOOO      OOOO",
"OOOO#       OOOOO X       X       OOOOO       OOOO",
"OOOO#       OOOOO        OO       OOOOO       OOOO",
"OOOOO       ##OO         OOO  X   O#OO#       OOOO",
"OOOOOO      OOOO        OOOO       #OOO       OOOO",
"OOOOOO       OO#        OOOO       #OO       OOOOO",
"OOOOO#       #O        OOOOO#      OOO       OOOOO",
"OOOOOO                 OOOOO#       OO       OOOO#",
"#OOOOO#                #OOOO#                OOOOO",
"OOOOOO#               OOOOOO##               OOOO+",
"OOOOOO#               OOO#OO##              OOOOOO",
"OOOOOOO               #OOOOOOO             XOOOOOO",
"OOOOOOOO             OOOOOOOOOO             ##OOOO",
"OOOOOOOO             OOOOOOOOOO   X         OOOOOO",
"OOOOOOOO             OOOOOOOOOO X          OO#OOOO",
"OOOOOOOO            OOOOOOOOOOOO           OOOOOOO",
"OOOOOOOOO           OOOOOOOOOOOO           OOO#OOO",
"OOOOOOOOO          #OOOOOOOOOOOO         XOOOOOOOO",
"OOOOOOOOO          OOOOOOOOOOOOOO X       OOOOOOOO",
"OO#OOOOOO          OOOOOOOOOOOOOO        OOOOOOO#O",
"OOOOOOOOOO        OOOOOO#OOOOOOOO        OOOOOOOOO",
"OOOOOOOOOO        OOOOOOOOOOOOOOOO       OOOOOOOOO",
"OOOOOOOOOOO      OOOOOOOOOOOOOOOOO      OOOOOOOOOO",
"OO#OOOOOOOOOOOOOOOOOOOOOOO#OOOOOOOOOOO+OOOOO#OOOOO",
"OOOOOOOOOOOOOOOOOOOOOOOOOOOOOO#OOOOOOOOOOOOOOOOOOO",
"OOOOOOOOOOOOOOOOOOO+OOOOOOO+OOOOOOOO#OOOOOOOOOOOOO",
"OOOOOOOOOOOOOOOOOOOOOOOOOOOOOOOOOOOOOOOOOOOOOOOOO#",
"OOOOOOOOOOOOOOOOOOO#OOOOO+OOOOOOOOOOOOOOOOOOOOOOOO",
"OOOOOOOOO#OOOOOOOOOOOOOOOOOOOOOOOOOOOOOOOOOOOOOOOO"
};
